# xmcd CD database file
#
# Track frame offsets:
#	150
#	18017
#	33320
#	45943
#	60371
#	74757
#	86814
#	103150
#	118053
#	134034
#	149309
#	163330
#	174258
#	196831
#	210762
#	224916
#	239425
#	254921
#	268732
#	287614
#	301689
#	317619
#	331302
#	343164
#
# Disc length: 4740 seconds
#
# Revision: 0
# Processed by: cddbd v1.5.2PL0 Copyright (c) Steve Scherf et al.
# Submitted via: CDex 1.99.1
#
DISCID=70128218
DTITLE=Hawkins, Coleman (1904-1969) - Coleman Hawkins 1956 - The Hawk In Paris (1-12) The Hawk In HI-FI (13-24)
DYEAR=1956
DGENRE=Jazz
TTITLE0=April In Paris
TTITLE1=Mon Home
TTITLE2=Under Paris Skies
TTITLE3=Mimi
TTITLE4=La Chnouf
TTITLE5=La Vie En Rose
TTITLE6=La Mer
TTITLE7=Paris In The Spring
TTITLE8=I Love Paris
TTITLE9=Mademoiselle De Paris
TTITLE10=Chien Perdu Sans Collier
TTITLE11=Tu N'peux Pas T'figurer
TTITLE12=Body And Soul
TTITLE13=Little Girl Blue
TTITLE14=I Never Knew
TTITLE15=Dinner For One Please, James
TTITLE16=The Bean Stalks Again
TTITLE17=His Very Own Blues
TTITLE18=The Day You Came Along
TTITLE19=Have You Met Miss Jones
TTITLE20=The Essence Of You
TTITLE21=There Will Never Be Another You
TTITLE22=I'm Shooting High
TTITLE23=Bean And The Boys
EXTD=YEAR: 1956
EXTT0=
EXTT1=
EXTT2=
EXTT3=
EXTT4=
EXTT5=
EXTT6=
EXTT7=
EXTT8=
EXTT9=
EXTT10=
EXTT11=
EXTT12=
EXTT13=
EXTT14=
EXTT15=
EXTT16=
EXTT17=
EXTT18=
EXTT19=
EXTT20=
EXTT21=
EXTT22=
EXTT23=
PLAYORDER=
